<svg id="Capa_1" enable-background="new 0 0 503.861 503.861" height="70" viewBox="0 0 503.861 503.861" width="70" xmlns="http://www.w3.org/2000/svg"><g><path d="m36.129 174.98c-5.526 0-10.005-4.479-10.005-10.005s4.479-10.005 10.005-10.005 10.005 4.479 10.005 10.005-4.479 10.005-10.005 10.005zm431.603-20.01c-5.526 0-10.005 4.479-10.005 10.005s4.479 10.005 10.005 10.005 10.005-4.479 10.005-10.005-4.479-10.005-10.005-10.005zm29.549-40.08c-2.335 3.803-4.361 7.85-6.28 11.85-5.722 11.927-23.752 3.277-18.03-8.65 2.149-4.48 4.648-8.863 7.02-13.25 8.811-16.295 1.126-28.692-4.43-33.89-15.018-14.05-29.75-6.95-34.59-3.96-29.022 18.031-56.355 39.051-81.444 62.493 19.208-2.748 38.407 3.161 52.738 16.279 14.445 13.223 22.044 32.018 20.849 51.565-1.004 16.419-7.514 32.004-18.416 44.24 18.892-.817 30.167-12.404 32.874-26.087l1.63-8.3c2.577-13.03 22.197-9.15 19.62 3.88l-1.63 8.3c-4.906 23.443-23.68 39.701-46.52 41.73l-58.056 5.039c17.664 6.751 34.096 16.199 49.463 28.415 21.501 17.093 33.924 42.656 34.083 70.134.157 27.251-11.833 52.712-32.896 69.856-9.964 8.11-20.695 15.398-32.341 20.725-38.639 17.673-70.768-6.456-78.148-33.429l-14.858-55.459v-.001-.001l-5.988-22.35v61.461c0 15.871-12 29.98-31.085 29.98-16.224 0-28.915-13.956-28.915-30.46v-60.98l-5.988 22.35v.001.001l-14.858 55.459c-7.38 26.973-39.509 51.102-78.148 33.429-11.646-5.327-22.377-12.615-32.341-20.725-21.063-17.144-33.053-42.605-32.896-69.856.159-27.479 12.581-53.042 34.083-70.134 15.368-12.216 31.799-21.664 49.463-28.415l-58.056-5.04c-22.84-2.029-41.614-18.287-46.52-41.73l-1.63-8.3c-2.577-13.03 17.043-16.91 19.62-3.88l1.63 8.3c2.707 13.683 13.981 25.27 32.874 26.087-10.902-12.236-17.412-27.821-18.416-44.24-1.195-19.547 6.404-38.342 20.849-51.565 14.33-13.118 33.529-19.027 52.738-16.279-25.089-23.442-52.422-44.462-81.445-62.493-4.84-2.99-19.572-10.09-34.59 3.96-5.556 5.198-13.241 17.595-4.43 33.89 2.372 4.387 4.871 8.77 7.02 13.25 5.722 11.927-12.308 20.577-18.03 8.65-1.919-4-3.945-8.047-6.28-11.85-10.65-17.345-8.553-42.313 7.61-58.12 18.427-18.02 42.095-17.29 59.25-6.77 33.16 20.335 63.98 44.68 91.95 71.8 23.883 23.15 45.662 48.524 64.926 75.597-6.156-24.939-13.048-48.296-20.551-69.594-1.835-5.209.9-10.919 6.109-12.754 5.21-1.836 10.919.9 12.754 6.109 8.406 23.86 16.579 49.167 23.302 77.323 6.698-27.995 14.939-53.583 23.302-77.323 1.835-5.209 7.544-7.945 12.754-6.109 5.209 1.835 7.944 7.545 6.109 12.754-7.503 21.298-14.396 44.655-20.551 69.594 19.264-27.073 41.043-52.448 64.926-75.597 27.97-27.12 58.79-51.465 91.95-71.8 17.155-10.52 40.823-11.251 59.25 6.77 16.164 15.807 18.26 40.775 7.611 58.12zm-283.351 137.477v-15.887c0-7.215 2.022-13.967 5.529-19.72-10.444-15.245-21.731-29.961-33.775-44.061-11.552-12.583-27.006-20.847-43.861-23.383-13.366-2.008-26.751 2.07-36.722 11.197-9.97 9.127-15.216 22.1-14.391 35.592 1.584 25.911 22.152 47.183 47.934 49.72zm-29.314 153.65c-10.19 5.631-28.681 11.977-50.252 5.866-16.965-4.806-30.918-16.125-39.318-31.771-8.305-15.47-11.593-36.203-1.265-59.652-10.239 12.36-15.986 27.9-16.081 44.333-.122 21.163 9.18 40.929 25.521 54.229 8.791 7.155 18.384 13.318 28.528 18.283 24.02 11.756 46.471-4.244 50.017-20.65zm32.836-122.566c-1.157-3.348-2.026-6.711-2.612-10.076-34.543-.089-84.583 5.096-105.466 62.5-7.798 21.436 4.46 49.831 30.483 56.776 21.503 5.739 49.59-4.623 56.779-31.501v-.002zm44.478 19.337c0-8.119 1.504-15.608 4.734-23.567 2.259-5.568 3.266-10.517 3.266-16.048v-26.693c0-9.925-8.075-18-18-18s-18 8.075-18 18v26.692c0 5.369 1.151 10.893 3.421 16.42 3.038 7.396 4.579 15.2 4.579 23.195v102.213c0 5.586 4.314 10.473 9.626 10.473 5.922 0 10.374-4.38 10.374-9.993zm107.566 109.095c-21.571 6.111-40.062-.235-50.252-5.866l2.85 10.637c3.546 16.406 25.997 32.406 50.017 20.65 10.145-4.965 19.737-11.127 28.528-18.283 16.341-13.3 25.643-33.066 25.521-54.229-.095-16.434-5.842-31.974-16.081-44.332 10.328 23.448 7.04 44.182-1.265 59.652-8.4 15.646-22.353 26.965-39.318 31.771zm-80.435-138.508c-.578 3.371-1.444 6.716-2.641 10.119l20.804 77.655v.002c7.189 26.878 35.277 37.24 56.779 31.501 26.023-6.946 38.281-35.341 30.483-56.776-20.874-57.383-70.883-62.586-105.425-62.501zm29.116-100.675c-12.044 14.099-23.331 28.816-33.775 44.061 3.506 5.752 5.529 12.504 5.529 19.72v15.886l75.286-6.54c25.782-2.537 46.35-23.809 47.934-49.72.825-13.492-4.42-26.465-14.391-35.592s-23.356-13.205-36.722-11.197c-16.856 2.535-32.31 10.8-43.861 23.382z"/></g></svg>